<svg xmlns="http://www.w3.org/2000/svg" id="e5c3cd2a-f4c8-459c-b8dc-13de46642e9d" data-name="Layer 1" width="814.4199" height="343.9678" viewBox="0 0 814.4199 343.9678"><polygon points="199.342 1.884 199.668 0.652 197.203 0 155.839 156.48 1.366 58.449 0 60.603 155.156 159.066 106.451 343.316 108.917 343.968 157.414 160.5 222.077 201.535 223.153 202.219 224.52 200.065 158.098 157.913 199.342 1.884"></polygon><polygon points="814.42 200.065 747.998 157.913 789.242 1.884 789.568 0.652 787.103 0 745.739 156.48 592.344 59.132 591.267 58.449 589.9 60.603 745.056 159.066 696.352 343.316 698.817 343.968 747.315 160.5 813.054 202.219 814.42 200.065"></polygon><polygon points="300.338 292.042 299.066 292.132 299.247 294.676 494.956 280.78 496.229 280.69 496.048 278.146 300.338 292.042"></polygon><rect x="409.3622" y="-62.2446" width="2.55" height="247.6864" transform="translate(290.9448 458.5387) rotate(-81.8735)"></rect></svg>